<?xml version="1.0" encoding="UTF-8"?>
<svg xmlns="http://www.w3.org/2000/svg" xmlns:xlink="http://www.w3.org/1999/xlink" width="60pt" height="48pt" viewBox="0 0 60 48" version="1.1">
<g id="surface1">
<path style=" stroke:none;fill-rule:evenodd;fill:rgb(0%,64.705882%,29.411765%);fill-opacity:1;" d="M 44.058594 42.492188 C 43.421875 42.492188 42.90625 43.039062 42.90625 43.707031 C 42.90625 44.378906 43.421875 44.921875 44.058594 44.921875 C 44.695312 44.921875 45.207031 44.378906 45.207031 43.707031 C 45.207031 43.039062 44.695312 42.492188 44.058594 42.492188 Z M 6.535156 42.492188 C 5.898438 42.492188 5.382812 43.039062 5.382812 43.707031 C 5.382812 44.378906 5.898438 44.921875 6.535156 44.921875 C 7.171875 44.921875 7.683594 44.378906 7.683594 43.707031 C 7.683594 43.039062 7.171875 42.492188 6.535156 42.492188 Z M 2.730469 39.425781 L 48.042969 39.425781 C 48.253906 39.425781 48.421875 39.601562 48.421875 39.8125 L 48.421875 47.601562 C 48.421875 47.816406 48.253906 47.988281 48.042969 47.988281 L 2.730469 47.988281 C 2.519531 47.988281 2.347656 47.816406 2.347656 47.601562 L 2.347656 39.8125 C 2.347656 39.601562 2.519531 39.425781 2.730469 39.425781 Z M 44.058594 32.664062 C 43.421875 32.664062 42.90625 33.207031 42.90625 33.878906 C 42.90625 34.546875 43.421875 35.089844 44.058594 35.089844 C 44.695312 35.089844 45.207031 34.546875 45.207031 33.878906 C 45.207031 33.207031 44.695312 32.664062 44.058594 32.664062 Z M 6.535156 32.664062 C 5.898438 32.664062 5.382812 33.207031 5.382812 33.878906 C 5.382812 34.546875 5.898438 35.089844 6.535156 35.089844 C 7.171875 35.089844 7.683594 34.546875 7.683594 33.878906 C 7.683594 33.207031 7.171875 32.664062 6.535156 32.664062 Z M 44.058594 23.113281 C 43.421875 23.113281 42.90625 23.65625 42.90625 24.328125 C 42.90625 25 43.421875 25.542969 44.058594 25.542969 C 44.695312 25.542969 45.207031 25 45.207031 24.328125 C 45.207031 23.65625 44.695312 23.113281 44.058594 23.113281 Z M 6.535156 23.113281 C 5.898438 23.113281 5.382812 23.65625 5.382812 24.328125 C 5.382812 25 5.898438 25.542969 6.535156 25.542969 C 7.171875 25.542969 7.683594 25 7.683594 24.328125 C 7.683594 23.65625 7.171875 23.113281 6.535156 23.113281 Z M 29.769531 9.320312 C 29.617188 9.007812 29.902344 11.550781 29.816406 11.773438 C 29.730469 11.992188 29.253906 10.429688 29.246094 10.648438 C 29.238281 10.871094 29.382812 12.113281 29.769531 13.101562 C 30.15625 14.09375 30.878906 15.597656 31.574219 16.59375 C 32.269531 17.59375 33.222656 18.480469 33.949219 19.089844 C 34.132812 19.242188 34.316406 19.375 34.496094 19.488281 L 34.980469 19.765625 L 35.765625 19.765625 L 35.519531 19.597656 C 34.59375 18.957031 33.164062 17.941406 32.476562 17.136719 C 31.558594 16.0625 31.171875 14.945312 30.71875 13.644531 C 30.269531 12.339844 29.917969 9.632812 29.769531 9.320312 Z M 44.746094 4.828125 C 44.742188 4.804688 44.722656 4.800781 44.6875 4.832031 C 44.394531 5.082031 42.683594 8.542969 41.980469 8.824219 C 41.273438 9.109375 41.195312 7.773438 40.457031 6.539062 C 40.71875 8.714844 40.703125 9.539062 41.265625 10.15625 C 41.117188 10.855469 40.539062 12.40625 40.125 12.609375 C 39.714844 12.808594 39.398438 12.277344 38.796875 11.363281 C 38.195312 10.445312 37.710938 9.898438 36.515625 7.121094 C 36.601562 8.957031 36.761719 9.460938 37.039062 10.40625 C 37.316406 11.347656 37.757812 12.046875 38.179688 12.773438 C 38.597656 13.503906 39.484375 13.882812 39.554688 14.769531 C 39.628906 15.65625 38.722656 17.28125 38.605469 18.097656 C 38.488281 18.914062 38.566406 19.421875 38.84375 19.675781 L 38.941406 19.765625 L 40.195312 19.765625 L 40.269531 19.636719 C 40.710938 18.546875 41.019531 14.488281 41.503906 13.148438 C 41.984375 11.8125 42.628906 11.992188 43.167969 11.609375 C 43.703125 11.230469 43.734375 11.429688 44.734375 10.863281 C 43.402344 10.710938 42.476562 11.285156 42.3125 10.695312 C 42.144531 10.105469 43.339844 8.304688 43.734375 7.328125 C 44.082031 6.472656 44.773438 5.011719 44.746094 4.828125 Z M 37.507812 0.0898438 C 37.765625 0.15625 38.277344 0.746094 38.652344 0.804688 C 39.078125 0.875 39.632812 0.460938 39.980469 0.515625 C 40.332031 0.570312 40.441406 1.050781 40.742188 1.140625 C 41.042969 1.230469 41.621094 0.910156 41.789062 1.054688 C 41.953125 1.203125 41.589844 1.679688 41.738281 2.011719 C 41.890625 2.34375 42.476562 2.953125 42.691406 3.050781 C 42.902344 3.148438 42.808594 2.914062 43.023438 2.59375 C 43.238281 2.277344 43.648438 1.292969 43.972656 1.140625 C 44.296875 0.988281 44.410156 1.582031 44.96875 1.679688 C 45.53125 1.777344 46.640625 1.796875 47.347656 1.722656 C 48.050781 1.644531 48.777344 1.167969 49.199219 1.222656 C 49.617188 1.277344 49.492188 1.847656 49.863281 2.054688 C 50.234375 2.261719 50.980469 2.003906 51.433594 2.46875 C 51.882812 2.933594 52.515625 4.367188 52.570312 4.839844 C 52.628906 5.3125 52.058594 4.945312 51.765625 5.296875 C 51.472656 5.652344 51.210938 6.601562 50.8125 6.960938 C 50.417969 7.320312 49.886719 7.265625 49.386719 7.460938 C 48.890625 7.652344 48.226562 7.632812 47.820312 8.125 C 47.417969 8.617188 47.394531 9.914062 46.964844 10.410156 C 46.539062 10.910156 45.359375 10.902344 45.253906 11.117188 C 45.152344 11.332031 46.339844 11.304688 46.347656 11.699219 C 46.355469 12.09375 45.421875 13.042969 45.304688 13.488281 C 45.183594 13.929688 45.683594 14.195312 45.636719 14.359375 C 45.589844 14.527344 45.128906 14.140625 45.019531 14.484375 C 44.90625 14.832031 45.246094 16.015625 44.96875 16.441406 C 44.695312 16.863281 43.941406 16.355469 43.355469 17.023438 C 43.0625 17.355469 42.605469 18.113281 42.214844 18.835938 L 41.738281 19.765625 L 42.390625 19.765625 L 42.445312 19.710938 C 42.609375 19.550781 42.761719 19.390625 42.878906 19.265625 C 43.355469 18.769531 43.75 17.945312 44.304688 17.4375 C 44.859375 16.933594 45.921875 16.65625 46.207031 16.230469 C 46.492188 15.808594 45.953125 15.207031 46.015625 14.902344 C 46.078125 14.597656 46.484375 14.644531 46.585938 14.402344 C 46.6875 14.160156 46.5 13.792969 46.632812 13.445312 C 46.769531 13.101562 47.410156 12.65625 47.394531 12.324219 C 47.378906 11.992188 46.417969 11.664062 46.539062 11.449219 C 46.65625 11.234375 47.6875 11.511719 48.105469 11.035156 C 48.527344 10.558594 48.613281 9.191406 49.054688 8.582031 C 49.5 7.972656 50.234375 7.617188 50.765625 7.375 C 51.296875 7.132812 51.929688 7.464844 52.238281 7.125 C 52.546875 6.785156 52.160156 5.503906 52.621094 5.339844 C 53.078125 5.171875 54.417969 6.085938 54.996094 6.128906 C 55.574219 6.171875 55.753906 5.53125 56.085938 5.589844 C 56.417969 5.644531 56.710938 6.371094 56.988281 6.460938 C 57.265625 6.550781 57.304688 5.984375 57.75 6.128906 C 58.191406 6.273438 59.324219 6.90625 59.652344 7.335938 C 59.976562 7.765625 59.847656 8.375 59.699219 8.707031 C 59.546875 9.039062 58.90625 8.808594 58.746094 9.332031 C 58.589844 9.851562 58.605469 11.304688 58.746094 11.824219 C 58.890625 12.34375 59.570312 11.984375 59.601562 12.449219 C 59.632812 12.914062 59.65625 14.445312 58.9375 14.609375 C 58.21875 14.777344 56.453125 13.570312 55.28125 13.445312 C 54.109375 13.320312 52.816406 13.488281 51.90625 13.863281 C 50.996094 14.238281 50.585938 14.8125 49.816406 15.691406 C 49.046875 16.570312 47.933594 18.617188 47.296875 19.140625 C 46.664062 19.667969 46.425781 18.726562 46.015625 18.851562 C 45.707031 18.945312 45.496094 19.335938 45.183594 19.636719 L 45 19.765625 L 48.042969 19.765625 C 48.253906 19.765625 48.421875 19.941406 48.421875 20.152344 L 48.421875 27.941406 C 48.421875 28.15625 48.253906 28.328125 48.042969 28.328125 L 31.109375 28.328125 L 30.976562 28.523438 C 30.722656 28.808594 30.433594 29.058594 30.117188 29.257812 L 30.019531 29.597656 L 48.042969 29.597656 C 48.253906 29.597656 48.421875 29.769531 48.421875 29.984375 L 48.421875 37.773438 C 48.421875 37.984375 48.253906 38.160156 48.042969 38.160156 L 2.730469 38.160156 C 2.519531 38.160156 2.347656 37.984375 2.347656 37.773438 L 2.347656 29.984375 C 2.347656 29.769531 2.519531 29.597656 2.730469 29.597656 L 13.652344 29.597656 L 13.128906 29.246094 C 12.898438 29.011719 12.710938 28.730469 12.578125 28.410156 L 12.558594 28.328125 L 2.730469 28.328125 C 2.519531 28.328125 2.347656 28.15625 2.347656 27.941406 L 2.347656 20.152344 C 2.347656 19.941406 2.519531 19.765625 2.730469 19.765625 L 6.304688 19.765625 L 8.523438 18.511719 C 8.574219 18.484375 8.589844 18.421875 8.5625 18.375 L 8.371094 18.027344 C 8.34375 17.980469 8.285156 17.960938 8.238281 17.988281 L 5.121094 19.753906 L 4.867188 19.53125 C 3.582031 18.429688 2.1875 16.980469 1.328125 15.300781 L 1.214844 15.035156 L 5.316406 12.710938 C 5.363281 12.683594 5.378906 12.625 5.351562 12.574219 L 5.160156 12.230469 C 5.132812 12.179688 5.074219 12.164062 5.027344 12.191406 L 0.976562 14.484375 L 0.882812 14.269531 C 0.636719 13.5625 0.5 12.824219 0.511719 12.0625 C 0.527344 10.917969 1.105469 9.941406 1.925781 9.25 L 2.132812 9.109375 L 0.0703125 5.382812 C 0 5.253906 0.046875 5.09375 0.171875 5.019531 L 1.089844 4.5 C 1.152344 4.464844 1.226562 4.457031 1.289062 4.476562 C 1.355469 4.496094 1.414062 4.539062 1.449219 4.601562 L 3.53125 8.371094 L 3.789062 8.269531 C 4.785156 8 5.808594 8.09375 6.527344 8.652344 C 7.726562 9.589844 8.679688 11.117188 9.40625 12.769531 L 9.652344 13.378906 L 5.101562 15.957031 C 5.054688 15.984375 5.039062 16.042969 5.066406 16.089844 L 5.257812 16.4375 C 5.285156 16.488281 5.34375 16.503906 5.390625 16.476562 L 9.871094 13.941406 L 10.472656 15.785156 L 11.5 19.765625 L 12.15625 19.765625 L 12.148438 19.734375 L 12.148438 9.449219 C 12.148438 8.074219 13.253906 6.957031 14.613281 6.957031 L 15.019531 6.957031 L 15.019531 5.148438 C 15.019531 4.832031 15.273438 4.574219 15.589844 4.574219 L 18.308594 4.574219 C 18.625 4.574219 18.878906 4.832031 18.878906 5.148438 L 18.878906 6.957031 L 19.28125 6.957031 C 20.644531 6.957031 21.75 8.074219 21.75 9.449219 L 21.75 15.976562 L 22.660156 16.25 C 23.238281 16.570312 23.648438 17.136719 23.796875 17.894531 L 24.449219 17.621094 C 25.945312 17.175781 27.195312 18.074219 27.09375 19.710938 L 27.117188 19.703125 L 28.152344 19.367188 C 28.496094 19.34375 28.820312 19.410156 29.09375 19.566406 L 29.292969 19.765625 L 33.855469 19.765625 L 33.300781 19.40625 C 32.511719 18.820312 31.765625 18.050781 31.195312 17.386719 C 30.433594 16.5 30.046875 15.757812 29.53125 14.601562 C 29.015625 13.441406 28.535156 11.210938 28.105469 10.441406 C 27.679688 9.671875 27.410156 10.074219 26.964844 9.984375 C 26.523438 9.894531 25.800781 10.082031 25.445312 9.902344 C 25.089844 9.722656 24.890625 9.152344 24.828125 8.902344 C 24.765625 8.652344 25.121094 8.550781 25.066406 8.40625 C 25.011719 8.257812 24.628906 8.257812 24.496094 8.03125 C 24.359375 7.800781 24.226562 7.394531 24.257812 7.03125 C 24.289062 6.671875 24.488281 6.109375 24.6875 5.867188 C 24.882812 5.625 25.25 5.742188 25.445312 5.578125 C 25.644531 5.410156 25.660156 5.070312 25.875 4.871094 C 26.085938 4.667969 26.371094 4.390625 26.730469 4.371094 C 27.085938 4.351562 27.640625 4.753906 28.011719 4.746094 C 28.382812 4.738281 28.644531 4.417969 28.960938 4.328125 C 29.277344 4.238281 29.523438 4.140625 29.910156 4.203125 C 30.300781 4.265625 31.066406 4.570312 31.289062 4.703125 C 31.34375 4.738281 31.363281 4.777344 31.359375 4.816406 L 31.304688 4.929688 L 31.289062 4.941406 L 31.230469 5.003906 C 31.214844 5.015625 31.210938 5.015625 31.242188 4.996094 L 31.289062 4.941406 L 31.304688 4.929688 L 31.375 4.851562 C 31.550781 4.648438 31.816406 4.292969 32.003906 4.203125 C 32.0625 4.175781 32.121094 4.164062 32.175781 4.164062 C 32.34375 4.160156 32.5 4.257812 32.714844 4.289062 C 33 4.328125 33.464844 4.363281 33.710938 4.453125 C 33.957031 4.542969 34.242188 4.640625 34.1875 4.828125 C 34.132812 5.015625 33.640625 5.320312 33.378906 5.578125 C 33.117188 5.832031 33.015625 6.152344 32.621094 6.367188 C 32.222656 6.582031 31.273438 6.59375 31.003906 6.867188 C 30.734375 7.136719 31.113281 7.609375 31.003906 7.988281 C 30.894531 8.371094 30.371094 8.785156 30.339844 9.152344 C 30.308594 9.519531 30.734375 9.867188 30.8125 10.191406 C 30.894531 10.519531 30.578125 10.886719 30.8125 11.105469 C 31.050781 11.328125 32.074219 11.292969 32.238281 11.523438 C 32.40625 11.75 31.699219 12.0625 31.8125 12.480469 C 31.921875 12.894531 32.699219 13.492188 32.90625 14.019531 C 33.109375 14.542969 32.785156 15.152344 33.046875 15.640625 C 33.308594 16.125 34.195312 16.457031 34.472656 16.929688 C 34.75 17.398438 34.441406 18.003906 34.710938 18.464844 C 34.980469 18.929688 35.835938 19.445312 36.085938 19.714844 L 36.136719 19.765625 L 36.703125 19.765625 L 36.691406 19.757812 C 36.445312 19.582031 36.207031 19.386719 36.085938 19.183594 C 35.847656 18.78125 36.148438 18.253906 35.898438 17.8125 C 35.644531 17.367188 34.84375 17.050781 34.566406 16.523438 C 34.289062 15.996094 34.488281 15.242188 34.234375 14.652344 C 33.980469 14.0625 33.164062 13.445312 33.046875 12.988281 C 32.925781 12.53125 33.65625 12.214844 33.523438 11.90625 C 33.386719 11.601562 32.429688 11.527344 32.238281 11.160156 C 32.046875 10.792969 32.367188 10.148438 32.382812 9.703125 C 32.398438 9.261719 32.207031 8.761719 32.332031 8.5 C 32.460938 8.234375 33.0625 8.332031 33.140625 8.125 C 33.21875 7.917969 32.640625 7.527344 32.808594 7.25 C 32.976562 6.972656 33.757812 6.746094 34.140625 6.460938 C 34.519531 6.175781 34.828125 5.878906 35.089844 5.546875 C 35.351562 5.214844 35.769531 4.824219 35.707031 4.464844 C 35.644531 4.105469 34.78125 3.6875 34.710938 3.382812 C 34.636719 3.078125 34.953125 2.824219 35.277344 2.636719 C 35.605469 2.449219 36.292969 2.441406 36.65625 2.261719 C 37.019531 2.082031 37.339844 1.914062 37.464844 1.554688 C 37.589844 1.195312 37.21875 0.222656 37.417969 0.101562 C 37.441406 0.0859375 37.472656 0.0820312 37.507812 0.0898438 Z M 37.507812 0.0898438 "/>
</g>
</svg>
