<?xml version="1.0" encoding="UTF-8"?>
<svg xmlns="http://www.w3.org/2000/svg" xmlns:xlink="http://www.w3.org/1999/xlink" width="79pt" height="48pt" viewBox="0 0 79 48" version="1.1">
<g id="surface1">
<path style=" stroke:none;fill-rule:evenodd;fill:rgb(0%,64.705882%,29.411765%);fill-opacity:1;" d="M 73.574219 9.242188 C 73.574219 8.738281 73.167969 8.332031 72.667969 8.332031 L 68.136719 8.332031 C 67.636719 8.332031 67.230469 8.738281 67.230469 9.242188 L 67.230469 12.425781 L 73.574219 12.425781 Z M 73.574219 9.242188 "/>
<path style=" stroke:none;fill-rule:evenodd;fill:rgb(0%,64.705882%,29.411765%);fill-opacity:1;" d="M 79 24.640625 C 78.996094 23.917969 78.828125 23.207031 78.507812 22.566406 L 73.933594 13.816406 L 66.871094 13.816406 L 62.28125 22.59375 C 61.96875 23.230469 61.804688 23.929688 61.804688 24.640625 L 61.804688 25.941406 C 61.804688 26.6875 62.046875 27.410156 62.488281 28.003906 C 62.046875 28.59375 61.804688 29.316406 61.804688 30.0625 L 61.804688 30.519531 C 61.804688 31.261719 62.046875 31.984375 62.488281 32.578125 C 62.046875 33.171875 61.804688 33.894531 61.804688 34.636719 L 61.804688 35.09375 C 61.804688 35.839844 62.046875 36.5625 62.488281 37.15625 C 62.046875 37.746094 61.804688 38.46875 61.804688 39.214844 L 61.804688 43.5625 C 61.808594 45.835938 63.628906 47.675781 65.878906 47.679688 L 74.925781 47.679688 C 77.175781 47.675781 78.996094 45.835938 79 43.5625 L 79 39.214844 C 79 38.46875 78.757812 37.746094 78.316406 37.15625 C 78.757812 36.5625 79 35.839844 79 35.09375 L 79 34.636719 C 79 33.894531 78.757812 33.171875 78.316406 32.578125 C 78.757812 31.984375 79 31.261719 79 30.519531 L 79 30.0625 C 79 29.316406 78.757812 28.59375 78.316406 28.003906 C 78.757812 27.410156 79 26.6875 79 25.941406 Z M 76.285156 25.941406 C 76.285156 26.320312 75.980469 26.628906 75.605469 26.628906 L 74.023438 26.628906 L 74.023438 29.375 L 75.605469 29.375 C 75.980469 29.375 76.285156 29.683594 76.285156 30.0625 L 76.285156 30.519531 C 76.285156 30.898438 75.980469 31.207031 75.605469 31.207031 L 74.023438 31.207031 L 74.023438 33.949219 L 75.605469 33.949219 C 75.980469 33.949219 76.285156 34.257812 76.285156 34.636719 L 76.285156 35.09375 C 76.285156 35.472656 75.980469 35.78125 75.605469 35.78125 L 74.023438 35.78125 L 74.023438 38.527344 L 75.605469 38.527344 C 75.980469 38.527344 76.285156 38.835938 76.285156 39.214844 L 76.285156 43.5625 C 76.285156 44.320312 75.675781 44.933594 74.925781 44.933594 L 65.878906 44.933594 C 65.128906 44.933594 64.519531 44.320312 64.519531 43.5625 L 64.519531 39.214844 C 64.519531 38.835938 64.824219 38.527344 65.199219 38.527344 L 66.78125 38.527344 L 66.78125 35.78125 L 65.199219 35.78125 C 64.824219 35.78125 64.519531 35.472656 64.519531 35.09375 L 64.519531 34.636719 C 64.519531 34.257812 64.824219 33.949219 65.199219 33.949219 L 66.78125 33.949219 L 66.78125 31.207031 L 65.199219 31.207031 C 64.824219 31.207031 64.519531 30.898438 64.519531 30.519531 L 64.519531 30.0625 C 64.519531 29.683594 64.824219 29.375 65.199219 29.375 L 66.78125 29.375 L 66.78125 26.628906 L 65.199219 26.628906 C 64.824219 26.628906 64.519531 26.320312 64.519531 25.941406 L 64.519531 24.640625 C 64.519531 24.367188 64.578125 24.09375 64.695312 23.847656 L 68.503906 16.5625 L 72.300781 16.5625 L 76.09375 23.820312 C 76.21875 24.074219 76.285156 24.355469 76.285156 24.640625 Z M 76.285156 25.941406 "/>
<path style=" stroke:none;fill-rule:evenodd;fill:rgb(0%,64.705882%,29.411765%);fill-opacity:1;" d="M 59.589844 30.625 C 59.503906 30.710938 59.414062 35.523438 58.933594 37.542969 C 58.453125 39.558594 58.386719 41.777344 56.699219 42.730469 C 55.011719 43.679688 50.914062 43.566406 48.8125 43.25 C 46.710938 42.929688 45.152344 42.558594 44.082031 40.828125 C 43.007812 39.097656 42.699219 34.199219 42.371094 32.875 C 42.042969 31.546875 42 30.796875 42.109375 32.355469 C 42.21875 33.910156 42.195312 40.195312 43.027344 42.210938 C 43.859375 44.226562 45.746094 43.941406 47.101562 44.460938 C 48.460938 44.976562 49.359375 45.351562 51.179688 45.324219 C 52.996094 45.292969 56.632812 45.667969 58.011719 44.285156 C 59.394531 42.902344 59.195312 39.300781 59.457031 37.023438 C 59.722656 34.746094 59.679688 30.539062 59.589844 30.625 Z M 63.511719 6.171875 C 56.546875 11.878906 47.535156 10.835938 39.8125 12.746094 L 40.6875 22.824219 C 51.4375 16.945312 54.949219 19.492188 62.082031 17.828125 Z M 63.664062 2.015625 C 63.664062 2.015625 61.804688 2.589844 59.328125 2.8125 C 56.851562 3.03125 52.140625 3.320312 48.8125 3.34375 C 45.484375 3.363281 41.078125 2.898438 39.347656 2.945312 C 37.617188 2.988281 37.792969 3.386719 38.429688 3.609375 C 39.0625 3.828125 40.75 4.074219 43.421875 4.140625 C 46.09375 4.207031 51.070312 4.25 54.464844 4.007812 C 57.859375 3.761719 62.261719 3.011719 63.796875 2.679688 C 65.328125 2.347656 64.410156 1.992188 63.664062 2.015625 Z M 61.695312 0.179688 C 62.078125 0.175781 62.4375 0.195312 62.757812 0.242188 C 64.039062 0.433594 64.988281 -0.210938 65.320312 1.539062 C 65.652344 3.289062 65.199219 7.105469 64.75 10.75 C 64.296875 14.398438 63.113281 20.058594 62.613281 23.417969 C 62.117188 26.777344 61.972656 28.3125 61.757812 30.902344 C 61.546875 33.492188 61.425781 36.660156 61.332031 38.964844 C 61.238281 41.265625 61.5 43.570312 61.191406 44.722656 C 60.882812 45.871094 59.957031 45.441406 59.480469 45.871094 C 59.007812 46.304688 59.03125 46.976562 58.34375 47.3125 C 57.652344 47.648438 56.539062 47.9375 55.351562 47.886719 C 54.164062 47.839844 52.550781 47.046875 51.222656 47.023438 C 49.894531 47 48.5625 47.671875 47.378906 47.742188 C 46.191406 47.816406 44.980469 47.71875 44.101562 47.457031 C 43.222656 47.191406 42.535156 46.449219 42.109375 46.160156 C 41.683594 45.871094 41.632812 46.570312 41.398438 45.871094 C 41.160156 45.175781 40.945312 44.074219 40.683594 41.988281 C 40.425781 39.898438 39.832031 33.351562 39.832031 33.351562 C 39.449219 29.511719 38.953125 23.25 38.40625 18.957031 C 37.859375 14.660156 36.933594 10.246094 36.554688 7.585938 C 36.175781 4.921875 36.082031 4.128906 36.128906 2.976562 C 36.175781 1.828125 36.035156 1.105469 36.839844 0.675781 C 37.648438 0.242188 40.96875 0.386719 40.96875 0.386719 L 50.796875 0.53125 C 53.570312 0.53125 57.628906 0.386719 57.628906 0.386719 C 59.125 0.351562 60.539062 0.179688 61.695312 0.179688 Z M 61.695312 0.179688 "/>
<path style=" stroke:none;fill-rule:evenodd;fill:rgb(0%,64.705882%,29.411765%);fill-opacity:1;" d="M 4.828125 34.609375 C 1.804688 34.609375 0.175781 38.503906 0.175781 41.65625 C 0.175781 44.546875 1.804688 46.894531 4.828125 46.894531 C 7.769531 46.894531 9.480469 44.546875 9.480469 41.65625 C 9.480469 38.503906 7.585938 34.609375 4.828125 34.609375 Z M 4.828125 34.609375 "/>
<path style=" stroke:none;fill-rule:evenodd;fill:rgb(0%,64.705882%,29.411765%);fill-opacity:1;" d="M 8.15625 35.621094 C 10.1875 35.621094 11.824219 38.921875 11.824219 41.65625 C 11.824219 42.867188 11.472656 43.949219 10.835938 44.707031 C 10.1875 45.480469 9.261719 45.886719 8.15625 45.886719 C 5.453125 45.886719 4.488281 43.703125 4.488281 41.65625 C 4.488281 39.125 5.761719 35.621094 8.15625 35.621094 M 8.15625 34.609375 C 5.121094 34.609375 3.488281 38.503906 3.488281 41.65625 C 3.488281 44.546875 5.121094 46.894531 8.15625 46.894531 C 11.109375 46.894531 12.824219 44.546875 12.824219 41.65625 C 12.824219 38.503906 10.929688 34.609375 8.15625 34.609375 Z M 8.15625 34.609375 "/>
<path style=" stroke:none;fill-rule:evenodd;fill:rgb(100%,100%,100%);fill-opacity:1;" d="M 35.226562 34.609375 C 35.199219 34.609375 35.175781 34.609375 35.148438 34.605469 C 34.886719 34.5625 34.707031 34.3125 34.75 34.050781 C 34.945312 32.714844 35.371094 31.425781 36.003906 30.242188 C 36.1875 29.910156 36.402344 29.59375 36.640625 29.300781 C 36.8125 29.097656 37.113281 29.070312 37.320312 29.242188 C 37.523438 29.414062 37.550781 29.71875 37.378906 29.925781 C 37.175781 30.171875 36.996094 30.441406 36.839844 30.722656 C 36.265625 31.808594 35.878906 32.984375 35.699219 34.203125 C 35.660156 34.4375 35.460938 34.609375 35.226562 34.609375 Z M 35.226562 34.609375 "/>
<path style=" stroke:none;fill-rule:evenodd;fill:rgb(0%,64.705882%,29.411765%);fill-opacity:1;" d="M 6.484375 29.128906 L 45.066406 29.128906 L 44.585938 31.304688 C 43.136719 36.1875 39.667969 40.253906 35.097656 42.628906 L 34.363281 42.96875 L 34.730469 43.035156 C 35.496094 43.339844 36.035156 44.054688 36.035156 44.886719 C 36.035156 45.996094 35.078125 46.894531 33.898438 46.894531 L 17.652344 46.894531 C 16.472656 46.894531 15.515625 45.996094 15.515625 44.886719 C 15.515625 44.054688 16.054688 43.339844 16.820312 43.035156 L 17.1875 42.96875 L 16.457031 42.628906 C 11.882812 40.253906 8.414062 36.1875 6.964844 31.304688 Z M 6.484375 29.128906 "/>
<path style=" stroke:none;fill-rule:evenodd;fill:rgb(0%,64.705882%,29.411765%);fill-opacity:1;" d="M 39.199219 31.546875 C 38.492188 30.359375 37.675781 29.238281 36.753906 28.207031 C 36.5 27.898438 36.222656 27.613281 35.925781 27.316406 L 35.527344 26.921875 L 35.429688 26.832031 C 35.320312 26.726562 35.207031 26.625 35.089844 26.523438 L 34.988281 26.429688 L 34.585938 26.082031 L 34.527344 26.03125 C 34.367188 25.894531 34.203125 25.757812 34.035156 25.628906 C 33.863281 25.496094 33.6875 25.367188 33.515625 25.242188 C 33.371094 25.136719 33.207031 25.035156 33.070312 24.933594 C 32.917969 24.832031 32.761719 24.734375 32.609375 24.625 C 31.886719 24.175781 31.125 23.796875 30.332031 23.492188 C 28.402344 22.726562 26.355469 22.320312 24.28125 22.292969 C 21.484375 22.261719 18.765625 23.21875 16.589844 24.992188 C 16.328125 25.207031 16.082031 25.433594 15.847656 25.679688 C 14.324219 27.234375 13.445312 29.273438 12.945312 30.816406 L 12.945312 30.84375 L 12.824219 31.222656 C 12.824219 31.238281 12.824219 31.257812 12.824219 31.273438 C 12.789062 31.382812 12.757812 31.496094 12.730469 31.582031 C 12.730469 31.609375 12.714844 31.636719 12.703125 31.664062 C 12.675781 31.757812 12.652344 31.847656 12.628906 31.933594 C 12.601562 32.019531 12.609375 32.007812 12.597656 32.046875 C 12.585938 32.089844 12.5625 32.183594 12.546875 32.246094 C 12.527344 32.308594 12.5 32.433594 12.476562 32.515625 C 12.472656 32.542969 12.472656 32.574219 12.476562 32.605469 C 12.476562 32.617188 12.476562 32.625 12.476562 32.632812 C 12.476562 32.65625 12.476562 32.675781 12.476562 32.695312 C 12.476562 32.707031 12.476562 32.714844 12.476562 32.722656 C 12.484375 32.742188 12.492188 32.757812 12.503906 32.773438 L 12.503906 32.796875 L 12.554688 32.851562 C 12.574219 32.871094 12.597656 32.886719 12.625 32.894531 C 12.625 32.894531 12.625 32.894531 12.648438 32.894531 L 12.820312 32.894531 C 12.851562 32.890625 12.878906 32.882812 12.910156 32.867188 C 13.46875 32.53125 14.003906 32.15625 14.507812 31.738281 C 14.589844 33.722656 16.207031 35.289062 18.171875 35.289062 L 33.414062 35.289062 C 34.984375 35.285156 36.375 34.277344 36.882812 32.777344 C 36.882812 32.777344 37.890625 32.691406 39.21875 31.585938 Z M 35.132812 27.828125 C 35.285156 27.976562 35.4375 28.140625 35.566406 28.277344 C 34.191406 29.273438 33.285156 30.488281 32.953125 31.753906 C 32.75 31.714844 32.550781 31.667969 32.355469 31.621094 C 32.714844 30.230469 33.675781 28.910156 35.132812 27.828125 Z M 32.757812 25.832031 C 32.929688 25.957031 33.101562 26.082031 33.269531 26.207031 C 31.539062 27.640625 30.464844 29.355469 30.25 30.996094 C 30.054688 30.929688 29.863281 30.863281 29.671875 30.792969 C 29.9375 29.078125 31.023438 27.3125 32.757812 25.832031 Z M 30.195312 24.441406 C 30.40625 24.527344 30.617188 24.617188 30.828125 24.714844 C 28.921875 26.355469 27.714844 28.21875 27.40625 29.914062 L 26.816406 29.679688 C 27.160156 27.945312 28.335938 26.097656 30.195312 24.441406 Z M 27 23.496094 C 27.238281 23.539062 27.476562 23.59375 27.722656 23.652344 C 25.976562 25.265625 24.824219 27.132812 24.414062 28.898438 C 24.222656 28.859375 24.023438 28.820312 23.820312 28.785156 C 24.25 26.996094 25.335938 25.128906 27 23.496094 Z M 23.394531 23.253906 C 23.667969 23.234375 23.945312 23.222656 24.222656 23.222656 C 22.695312 24.9375 21.707031 26.855469 21.378906 28.625 C 21.179688 28.625 20.972656 28.625 20.769531 28.652344 C 21.167969 26.652344 22.070312 24.792969 23.394531 23.253906 Z M 19.273438 24.347656 C 19.613281 24.183594 19.960938 24.035156 20.3125 23.90625 C 19.171875 25.390625 18.414062 27.140625 18.113281 28.996094 C 17.902344 29.039062 17.699219 29.089844 17.5 29.136719 C 17.722656 27.425781 18.328125 25.789062 19.273438 24.347656 Z M 15.160156 30.191406 C 14.957031 30.328125 14.75 30.464844 14.550781 30.605469 C 14.53125 30.0625 14.570312 29.515625 14.664062 28.976562 C 14.996094 28.289062 15.402344 27.636719 15.867188 27.027344 C 15.441406 28.03125 15.203125 29.101562 15.160156 30.191406 Z M 33.414062 34.054688 L 18.171875 34.054688 C 16.824219 34.054688 15.730469 32.949219 15.730469 31.585938 L 15.730469 30.921875 C 16.039062 30.691406 16.375 30.5 16.730469 30.351562 C 17.992188 29.902344 19.3125 29.636719 20.648438 29.566406 C 20.859375 29.566406 21.640625 29.53125 21.824219 29.535156 C 21.953125 29.535156 22.597656 29.5625 22.785156 29.578125 C 22.90625 29.578125 23.398438 29.640625 23.503906 29.660156 C 23.914062 29.714844 24.324219 29.800781 24.726562 29.914062 C 24.867188 29.953125 25.511719 30.171875 25.640625 30.222656 L 26.148438 30.414062 C 26.1875 30.414062 28.253906 31.25 28.386719 31.296875 L 29 31.527344 C 29.054688 31.546875 30.4375 32.042969 31.113281 32.238281 C 31.175781 32.257812 33.558594 32.882812 34.429688 32.925781 C 34.71875 32.925781 35.367188 32.96875 35.433594 32.964844 C 34.980469 33.644531 34.222656 34.050781 33.414062 34.054688 Z M 35.859375 32.066406 L 35.164062 32.066406 C 35.578125 31.226562 36.199219 30.507812 36.96875 29.980469 L 37.339844 30.472656 C 36.46875 30.867188 35.859375 32.066406 35.859375 32.066406 Z M 35.859375 32.066406 "/>
</g>
</svg>
