<?xml version="1.0" encoding="UTF-8"?>
<svg xmlns="http://www.w3.org/2000/svg" xmlns:xlink="http://www.w3.org/1999/xlink" width="63pt" height="48pt" viewBox="0 0 63 48" version="1.1">
<g id="surface1">
<path style=" stroke:none;fill-rule:evenodd;fill:rgb(0%,64.705882%,29.411765%);fill-opacity:1;" d="M 35.277344 12.539062 C 35.101562 12.960938 34.695312 16.628906 34.167969 18.390625 L 33.589844 20.132812 L 34.304688 20.132812 L 34.359375 20.019531 C 34.726562 19.175781 35.050781 18.332031 35.277344 17.660156 C 35.730469 16.320312 35.898438 14.640625 35.886719 14.339844 C 35.878906 14.039062 35.324219 16.160156 35.222656 15.859375 C 35.121094 15.558594 35.453125 12.113281 35.277344 12.539062 Z M 17.769531 6.457031 C 17.734375 6.707031 18.542969 8.683594 18.949219 9.84375 C 19.410156 11.164062 20.808594 13.605469 20.613281 14.402344 C 20.421875 15.199219 19.335938 14.421875 17.78125 14.628906 C 18.949219 15.398438 18.984375 15.125 19.613281 15.640625 C 20.246094 16.15625 20.996094 15.914062 21.558594 17.722656 C 21.699219 18.175781 21.828125 18.859375 21.949219 19.652344 L 22.019531 20.132812 L 23.859375 20.132812 L 23.835938 19.917969 C 23.917969 18.71875 24.957031 18.203125 25.445312 17.21875 C 25.9375 16.230469 26.457031 15.285156 26.78125 14.007812 C 27.105469 12.730469 27.289062 12.046875 27.390625 9.5625 C 25.992188 13.324219 25.429688 14.0625 24.726562 15.304688 C 24.019531 16.542969 23.652344 17.265625 23.167969 16.992188 C 22.6875 16.71875 22.011719 14.617188 21.835938 13.671875 C 22.492188 12.835938 22.476562 11.71875 22.78125 8.773438 C 21.917969 10.441406 21.828125 12.253906 21.003906 11.867188 C 20.179688 11.484375 18.179688 6.800781 17.835938 6.464844 C 17.796875 6.421875 17.773438 6.421875 17.769531 6.457031 Z M 26.230469 0.0429688 C 26.269531 0.03125 26.308594 0.0351562 26.335938 0.0546875 C 26.566406 0.222656 26.132812 1.535156 26.28125 2.023438 C 26.429688 2.511719 26.800781 2.738281 27.226562 2.980469 C 27.652344 3.226562 28.457031 3.234375 28.835938 3.488281 C 29.214844 3.742188 29.585938 4.089844 29.503906 4.5 C 29.417969 4.914062 28.410156 5.476562 28.335938 5.964844 C 28.261719 6.453125 28.753906 6.980469 29.058594 7.429688 C 29.363281 7.878906 29.722656 8.285156 30.167969 8.667969 C 30.613281 9.050781 31.53125 9.363281 31.722656 9.738281 C 31.917969 10.113281 31.242188 10.636719 31.335938 10.917969 C 31.425781 11.203125 32.132812 11.070312 32.28125 11.425781 C 32.425781 11.78125 32.207031 12.457031 32.222656 13.058594 C 32.242188 13.660156 32.613281 14.53125 32.390625 15.03125 C 32.167969 15.527344 31.046875 15.628906 30.890625 16.042969 C 30.734375 16.457031 31.585938 16.886719 31.445312 17.507812 C 31.308594 18.125 30.355469 18.960938 30.058594 19.757812 L 30.003906 20.132812 L 31.554688 20.132812 L 31.554688 20.019531 C 31.527344 19.640625 31.492188 19.253906 31.613281 18.898438 C 31.851562 18.1875 32.761719 17.378906 32.890625 16.816406 C 33.019531 16.253906 32.195312 15.832031 32.390625 15.519531 C 32.585938 15.210938 33.777344 15.257812 34.054688 14.957031 C 34.332031 14.65625 33.964844 14.160156 34.054688 13.71875 C 34.148438 13.277344 34.648438 12.808594 34.609375 12.3125 C 34.574219 11.816406 33.964844 11.25 33.832031 10.734375 C 33.703125 10.21875 34.148438 9.582031 33.832031 9.214844 C 33.519531 8.851562 32.40625 8.832031 31.945312 8.539062 C 31.480469 8.25 31.363281 7.816406 31.054688 7.46875 C 30.75 7.125 30.175781 6.710938 30.113281 6.457031 C 30.046875 6.203125 30.378906 6.074219 30.667969 5.949219 C 30.953125 5.828125 31.5 5.78125 31.835938 5.726562 C 32.085938 5.683594 32.265625 5.550781 32.460938 5.554688 C 32.527344 5.554688 32.59375 5.574219 32.667969 5.613281 C 32.882812 5.734375 33.195312 6.210938 33.398438 6.488281 L 33.480469 6.59375 L 33.484375 6.59375 L 33.5 6.613281 L 33.554688 6.683594 C 33.589844 6.710938 33.589844 6.710938 33.570312 6.695312 L 33.5 6.613281 L 33.480469 6.59375 L 33.417969 6.441406 C 33.414062 6.386719 33.433594 6.332031 33.5 6.289062 C 33.757812 6.109375 34.65625 5.699219 35.109375 5.613281 C 35.566406 5.527344 35.851562 5.660156 36.222656 5.78125 C 36.59375 5.902344 36.898438 6.335938 37.332031 6.34375 C 37.769531 6.355469 38.414062 5.808594 38.832031 5.839844 C 39.25 5.867188 39.582031 6.242188 39.832031 6.515625 C 40.082031 6.785156 40.101562 7.246094 40.332031 7.46875 C 40.5625 7.695312 40.988281 7.535156 41.222656 7.863281 C 41.453125 8.191406 41.683594 8.953125 41.71875 9.441406 C 41.757812 9.929688 41.601562 10.484375 41.441406 10.792969 C 41.285156 11.101562 40.839844 11.101562 40.777344 11.296875 C 40.710938 11.496094 41.128906 11.636719 41.054688 11.976562 C 40.980469 12.3125 40.75 13.082031 40.332031 13.324219 C 39.914062 13.570312 39.074219 13.316406 38.554688 13.4375 C 38.035156 13.558594 37.722656 13.015625 37.222656 14.058594 C 36.722656 15.097656 36.15625 18.121094 35.554688 19.6875 L 35.375 20.132812 L 63 20.132812 L 62.289062 23.617188 C 60.1875 31.230469 55.164062 37.574219 48.546875 41.277344 L 47.488281 41.800781 L 48.015625 41.910156 C 49.125 42.386719 49.902344 43.5 49.902344 44.796875 C 49.902344 46.527344 48.519531 47.929688 46.8125 47.929688 L 23.292969 47.929688 C 21.585938 47.929688 20.203125 46.527344 20.203125 44.796875 C 20.203125 43.5 20.984375 42.386719 22.089844 41.910156 L 22.621094 41.800781 L 21.5625 41.277344 C 14.945312 37.574219 9.917969 31.230469 7.820312 23.617188 L 7.109375 20.132812 L 11.054688 20.132812 L 10.679688 19.671875 C 10.316406 19.261719 9.929688 18.941406 9.394531 18.6875 C 8.332031 18.183594 6.824219 17.957031 5.453125 18.125 C 4.082031 18.292969 2.019531 19.925781 1.175781 19.703125 C 0.332031 19.476562 0.363281 17.402344 0.398438 16.773438 C 0.4375 16.144531 1.230469 16.632812 1.398438 15.929688 C 1.566406 15.226562 1.582031 13.257812 1.398438 12.550781 C 1.214844 11.847656 0.464844 12.160156 0.289062 11.707031 C 0.113281 11.257812 -0.0351562 10.433594 0.34375 9.851562 C 0.722656 9.269531 2.046875 8.414062 2.566406 8.21875 C 3.082031 8.019531 3.128906 8.789062 3.453125 8.667969 C 3.777344 8.546875 4.121094 7.5625 4.507812 7.484375 C 4.898438 7.410156 5.109375 8.273438 5.785156 8.21875 C 6.460938 8.160156 8.027344 6.921875 8.5625 7.148438 C 9.101562 7.371094 8.648438 9.109375 9.007812 9.570312 C 9.367188 10.027344 10.109375 9.578125 10.730469 9.90625 C 11.347656 10.234375 12.210938 10.714844 12.730469 11.539062 C 13.246094 12.363281 13.347656 14.214844 13.839844 14.859375 C 14.332031 15.507812 15.535156 15.132812 15.671875 15.421875 C 15.8125 15.714844 14.691406 16.15625 14.671875 16.605469 C 14.652344 17.054688 15.402344 17.65625 15.5625 18.125 C 15.71875 18.59375 15.496094 19.09375 15.617188 19.421875 C 15.738281 19.75 16.210938 19.683594 16.285156 20.097656 L 16.277344 20.132812 L 17.460938 20.132812 L 17.46875 20.0625 C 17.480469 19.839844 17.480469 19.652344 17.449219 19.53125 C 17.320312 19.0625 16.785156 19.589844 16.726562 19.363281 C 16.671875 19.140625 17.253906 18.78125 17.117188 18.183594 C 16.976562 17.582031 15.886719 16.296875 15.894531 15.761719 C 15.902344 15.226562 17.292969 15.265625 17.171875 14.972656 C 17.050781 14.683594 15.671875 14.691406 15.171875 14.015625 C 14.671875 13.339844 14.644531 11.585938 14.171875 10.917969 C 13.699219 10.253906 12.921875 10.28125 12.339844 10.019531 C 11.757812 9.757812 11.136719 9.832031 10.675781 9.34375 C 10.210938 8.855469 9.90625 7.570312 9.5625 7.089844 C 9.21875 6.613281 8.554688 7.109375 8.617188 6.472656 C 8.683594 5.835938 9.425781 3.890625 9.953125 3.261719 C 10.480469 2.632812 11.347656 2.980469 11.785156 2.699219 C 12.21875 2.417969 12.070312 1.648438 12.5625 1.574219 C 13.054688 1.5 13.90625 2.148438 14.726562 2.25 C 15.550781 2.351562 16.847656 2.324219 17.503906 2.195312 C 18.164062 2.0625 18.292969 1.253906 18.671875 1.460938 C 19.050781 1.667969 19.53125 3 19.78125 3.433594 C 20.03125 3.863281 19.921875 4.183594 20.171875 4.050781 C 20.421875 3.921875 21.105469 3.09375 21.28125 2.644531 C 21.457031 2.195312 21.03125 1.546875 21.226562 1.347656 C 21.421875 1.152344 22.097656 1.582031 22.449219 1.460938 C 22.800781 1.339844 22.929688 0.691406 23.335938 0.617188 C 23.746094 0.542969 24.394531 1.105469 24.894531 1.011719 C 25.328125 0.929688 25.929688 0.128906 26.230469 0.0429688 Z M 26.230469 0.0429688 "/>
</g>
</svg>
