<?xml version="1.0" encoding="UTF-8"?>
<svg xmlns="http://www.w3.org/2000/svg" xmlns:xlink="http://www.w3.org/1999/xlink" width="74pt" height="48pt" viewBox="0 0 74 48" version="1.1">
<g id="surface1">
<path style="fill-rule:evenodd;fill:rgb(0%,64.705882%,29.411765%);fill-opacity:1;stroke-width:4.58333;stroke-linecap:butt;stroke-linejoin:miter;stroke:rgb(0%,64.705882%,29.411765%);stroke-opacity:1;stroke-miterlimit:8;" d="M 3156.351351 1332.710938 C 3175.471284 1334.181641 3193.101351 1339.083984 3204.440878 1346.682617 C 3227.119932 1361.798177 3209.655405 1401.425456 3235.810811 1430.512695 C 3262.048986 1459.599935 3361.621622 1521.369466 3361.621622 1521.369466 L 3480.314189 1622.602865 C 3407.890203 1608.631185 3335.383446 1594.659505 3281.251689 1577.256185 C 3227.119932 1559.771159 3198.564189 1531.827799 3155.523649 1517.85612 C 3112.400338 1503.88444 3048.998311 1509.113607 3022.760135 1493.426107 C 2996.60473 1477.656901 2985.513514 1449.141602 2998.342905 1423.567708 C 3011.172297 1397.912109 3065.304054 1352.483724 3099.653716 1339.73763 C 3116.787162 1333.282878 3137.314189 1331.240234 3156.351351 1332.710938 Z M 2845.962838 1201.328125 C 2860.199324 1202.145182 2874.601351 1206.067057 2893.555743 1213.992513 C 2931.381757 1229.680013 3051.315878 1266.365885 3043.701014 1304.767578 C 3036.168919 1343.169271 2910.440878 1426.427409 2848.114865 1444.484375 C 2785.871622 1462.541341 2699.128378 1442.768555 2669.993243 1413.027669 C 2640.858108 1383.36849 2651.949324 1300.682292 2673.469595 1266.365885 C 2694.989865 1232.049479 2762.530405 1215.708333 2799.280405 1206.96582 C 2817.572635 1202.635417 2831.726351 1200.429362 2845.962838 1201.328125 Z M 3256.751689 1104.833659 C 3274.961149 1104.343424 3292.756757 1104.506836 3309.228041 1105.650716 C 3374.947635 1110.307943 3459.952703 1135.963542 3508.290541 1144.134115 C 3556.628378 1152.222982 3558.945946 1134.247721 3599.089527 1154.592448 C 3639.233108 1174.937174 3714.967905 1218.077799 3749.317568 1266.365885 C 3783.66723 1314.653971 3806.925676 1389.169596 3805.1875 1444.484375 C 3803.449324 1499.799154 3777.790541 1575.458659 3738.805743 1598.172852 C 3699.820946 1620.887044 3627.64527 1603.973958 3571.195946 1580.687826 C 3514.663851 1557.401693 3444.805743 1499.227214 3400.027027 1458.456055 C 3355.165541 1417.684896 3320.236486 1369.39681 3302.192568 1336.224284 C 3284.148649 1303.051758 3320.236486 1278.540039 3291.763514 1259.339193 C 3263.20777 1240.138346 3131.023649 1220.9375 3131.023649 1220.9375 C 3079.209459 1208.109701 2993.128378 1198.223307 2980.878378 1182.535807 C 2968.628378 1166.848307 3036.748311 1137.679362 3057.689189 1126.649089 C 3078.630068 1115.618815 3071.677365 1119.622396 3113.559122 1116.190755 C 3145.011824 1113.576172 3202.288851 1106.304362 3256.751689 1104.833659 Z M 3189.54223 1066.677083 C 2962.089527 1068.638021 2535.657095 1162.599609 2525.310811 1341.780273 C 2514.964527 1521.042643 2889.41723 1499.063802 3085.58277 1555.195638 C 3281.748311 1611.245768 3310.304054 1781.929036 3702.386824 1678.489583 L 3657.028716 1688.947917 C 3863.788851 1619.906576 3960.464527 1540.080078 3890.275338 1329.687826 C 3799.0625 1073.867188 3417.077703 1064.63444 3189.54223 1066.677083 Z M 3292.177365 1020.676758 C 3534.942568 1021.085286 3823.893581 1070.19043 3969.072635 1335.325521 C 3998.538851 1486.317708 3982.72973 1568.268555 3978.673986 1681.104167 C 3976.77027 1894.846354 3820.168919 1957.351237 3686.081081 1994.935872 C 3262.048986 2070.922201 3271.236486 1921.31901 3069.194257 1871.641927 C 2867.234797 1821.964844 2546.996622 1816.980794 2473.993243 1696.709961 C 2400.989865 1576.439128 2436.25 1432.391927 2442.706081 1296.923828 C 2546.996622 1199.857422 2817.489865 1048.375 3071.925676 1030.318034 C 3135.493243 1025.824219 3211.310811 1020.513346 3292.177365 1020.676758 Z M 3292.177365 1020.676758 " transform="matrix(0.0471939,0,0,0.0478088,-114.397959,-48.621514)"/>
</g>
</svg>
