<?xml version="1.0" encoding="UTF-8"?>
<svg xmlns="http://www.w3.org/2000/svg" xmlns:xlink="http://www.w3.org/1999/xlink" width="38pt" height="48pt" viewBox="0 0 38 48" version="1.1">
<g id="surface1">
<path style=" stroke:none;fill-rule:evenodd;fill:rgb(0%,64.705882%,29.411765%);fill-opacity:1;" d="M 7.433594 15.457031 C 5.191406 15.195312 2.992188 18.03125 2.355469 22.386719 C 1.71875 26.742188 3.15625 33.144531 5.398438 33.402344 C 4.039062 31.546875 3.375 26.675781 3.808594 22.863281 C 4.910156 18.519531 5.695312 16.953125 7.433594 15.457031 Z M 26.359375 12.46875 C 35.65625 12.089844 39.449219 20.367188 37.394531 31.378906 C 34.644531 42.007812 29.136719 50.449219 19.496094 47.148438 C 5.246094 51.496094 0.183594 33.125 0.109375 27.632812 C 0.0351562 22.136719 -0.40625 8.03125 19.046875 14.183594 C 21.777344 13.101562 24.214844 12.554688 26.359375 12.46875 Z M 10.136719 0.09375 C 12.878906 0.101562 14.597656 0.488281 16.382812 0.976562 C 18.757812 1.625 20.417969 3.074219 21.285156 4.125 C 22.152344 5.175781 21.148438 7.097656 21.582031 7.273438 C 22.015625 7.449219 23.167969 5.488281 23.886719 5.175781 C 24.605469 4.863281 25.644531 5.011719 25.894531 5.398438 C 26.140625 5.785156 25.96875 6.785156 25.371094 7.496094 C 24.777344 8.210938 23.230469 8.722656 22.328125 9.671875 C 21.421875 10.621094 20.964844 11.757812 19.949219 13.195312 C 19.675781 13.207031 18.710938 14.007812 18.757812 13.496094 C 18.808594 12.980469 19.8125 11.035156 20.246094 10.121094 C 20.679688 9.210938 21.335938 8.371094 21.507812 7.949219 C 21.683594 7.523438 21.96875 7.886719 21.285156 7.574219 C 21.285156 7.574219 18.808594 6.734375 17.421875 6.074219 C 16.035156 5.410156 14.722656 5.199219 12.964844 3.601562 C 13.507812 5.300781 14.5 5.613281 15.785156 6.375 C 17.074219 7.136719 20.195312 7.671875 20.691406 8.171875 C 21.1875 8.671875 19.636719 9.246094 18.757812 9.371094 C 17.878906 9.496094 16.953125 9.695312 15.414062 8.921875 C 13.878906 8.148438 10.945312 6.171875 9.546875 4.722656 C 8.144531 3.273438 8.320312 3.449219 7.019531 0.226562 C 8.199219 0.132812 9.226562 0.09375 10.136719 0.09375 Z M 10.136719 0.09375 "/>
</g>
</svg>
