<?xml version="1.0" encoding="UTF-8"?>
<svg xmlns="http://www.w3.org/2000/svg" xmlns:xlink="http://www.w3.org/1999/xlink" width="65pt" height="48pt" viewBox="0 0 65 48" version="1.1">
<g id="surface1">
<path style=" stroke:none;fill-rule:evenodd;fill:rgb(0%,64.705882%,29.411765%);fill-opacity:1;" d="M 27.59375 9.996094 C 27.542969 10.382812 28.800781 13.449219 29.433594 15.242188 C 30.15625 17.296875 32.332031 21.082031 32.03125 22.320312 C 31.726562 23.554688 30.039062 22.347656 27.613281 22.667969 C 29.433594 23.863281 29.492188 23.441406 30.472656 24.238281 C 31.453125 25.039062 32.621094 24.664062 33.503906 27.472656 C 34.382812 30.28125 34.945312 38.8125 35.753906 41.097656 C 36.5625 43.382812 37.847656 41.722656 38.351562 41.183594 C 38.855469 40.644531 39 39.582031 38.785156 37.863281 C 38.566406 36.148438 36.921875 32.742188 37.050781 30.878906 C 37.183594 29.015625 38.796875 28.214844 39.5625 26.6875 C 40.328125 25.15625 41.136719 23.6875 41.640625 21.707031 C 42.144531 19.726562 42.433594 18.664062 42.59375 14.808594 C 40.414062 20.644531 39.535156 21.792969 38.4375 23.714844 C 37.339844 25.636719 36.761719 26.757812 36.011719 26.335938 C 35.261719 25.914062 34.210938 22.652344 33.933594 21.183594 C 34.960938 19.886719 34.929688 18.15625 35.40625 13.585938 C 34.066406 16.175781 33.921875 18.984375 32.636719 18.386719 C 31.351562 17.792969 28.234375 10.527344 27.703125 10.003906 C 27.636719 9.9375 27.601562 9.9375 27.59375 9.996094 Z M 50.5 8.59375 C 50.601562 8.59375 50.707031 8.621094 50.820312 8.683594 C 51.152344 8.867188 51.644531 9.609375 51.957031 10.042969 L 52.089844 10.203125 L 52.089844 10.207031 L 52.113281 10.234375 L 52.203125 10.34375 C 52.257812 10.386719 52.253906 10.386719 52.226562 10.359375 L 52.113281 10.234375 L 52.089844 10.203125 L 51.992188 9.96875 C 51.984375 9.882812 52.015625 9.800781 52.117188 9.730469 C 52.519531 9.453125 53.921875 8.8125 54.628906 8.683594 C 55.335938 8.550781 55.78125 8.753906 56.359375 8.945312 C 56.9375 9.132812 57.414062 9.804688 58.089844 9.816406 C 58.769531 9.832031 59.78125 8.988281 60.429688 9.03125 C 61.078125 9.074219 61.597656 9.660156 61.988281 10.082031 C 62.378906 10.503906 62.40625 11.214844 62.765625 11.566406 C 63.128906 11.914062 63.792969 11.667969 64.152344 12.175781 C 64.511719 12.6875 64.875 13.863281 64.929688 14.621094 C 64.988281 15.378906 64.742188 16.238281 64.5 16.71875 C 64.253906 17.199219 63.558594 17.199219 63.460938 17.503906 C 63.359375 17.808594 64.007812 18.027344 63.890625 18.550781 C 63.777344 19.078125 63.417969 20.269531 62.765625 20.648438 C 62.117188 21.027344 60.804688 20.632812 59.996094 20.824219 C 59.1875 21.011719 58.699219 20.167969 57.917969 21.785156 C 57.140625 23.398438 56.257812 28.085938 55.320312 30.519531 C 54.382812 32.949219 53.675781 34.507812 52.289062 36.371094 C 50.90625 38.234375 48.941406 40.488281 47.007812 41.699219 C 45.074219 42.90625 41.25 43.503906 40.6875 43.617188 C 40.125 43.734375 42.664062 43.007812 43.632812 42.394531 C 44.597656 41.785156 45.941406 41.230469 47.269531 39.949219 C 48.597656 38.671875 50.328125 36.804688 51.597656 34.710938 C 52.867188 32.613281 54.179688 29.457031 54.886719 27.375 C 55.59375 25.292969 55.855469 22.6875 55.839844 22.21875 C 55.824219 21.753906 54.960938 25.042969 54.800781 24.578125 C 54.640625 24.113281 55.160156 18.769531 54.886719 19.425781 C 54.613281 20.082031 53.980469 25.773438 53.15625 28.507812 C 52.332031 31.246094 51.625 33.589844 49.953125 35.847656 C 48.277344 38.101562 44.210938 41.144531 43.113281 42.046875 C 42.015625 42.949219 42.910156 41.828125 43.371094 41.261719 C 43.835938 40.691406 45.394531 39.617188 45.882812 38.640625 C 46.375 37.664062 45.8125 36.398438 46.316406 35.410156 C 46.820312 34.417969 48.4375 33.71875 48.914062 32.703125 C 49.390625 31.683594 48.796875 30.402344 49.171875 29.296875 C 49.546875 28.1875 50.960938 26.9375 51.164062 26.0625 C 51.367188 25.191406 50.082031 24.535156 50.386719 24.054688 C 50.6875 23.574219 52.550781 23.648438 52.984375 23.179688 C 53.414062 22.714844 52.839844 21.945312 52.984375 21.261719 C 53.128906 20.574219 53.90625 19.847656 53.847656 19.078125 C 53.792969 18.304688 52.839844 17.429688 52.636719 16.632812 C 52.433594 15.832031 53.128906 14.839844 52.636719 14.273438 C 52.144531 13.703125 50.414062 13.675781 49.691406 13.226562 C 48.972656 12.773438 48.785156 12.105469 48.308594 11.566406 C 47.832031 11.027344 46.9375 10.386719 46.835938 9.992188 C 46.734375 9.601562 47.253906 9.394531 47.703125 9.207031 C 48.148438 9.019531 49 8.945312 49.519531 8.859375 C 49.910156 8.792969 50.195312 8.585938 50.5 8.59375 Z M 40.78125 0.0429688 C 40.847656 0.0234375 40.90625 0.0273438 40.949219 0.0585938 C 41.3125 0.320312 40.632812 2.359375 40.863281 3.117188 C 41.09375 3.875 41.671875 4.222656 42.335938 4.601562 C 43 4.980469 44.253906 4.992188 44.847656 5.386719 C 45.4375 5.78125 46.015625 6.320312 45.886719 6.960938 C 45.753906 7.601562 44.183594 8.472656 44.066406 9.230469 C 43.953125 9.988281 44.714844 10.800781 45.191406 11.5 C 45.667969 12.199219 46.230469 12.824219 46.925781 13.421875 C 47.617188 14.019531 49.046875 14.5 49.347656 15.082031 C 49.652344 15.664062 48.597656 16.480469 48.742188 16.917969 C 48.886719 17.351562 49.984375 17.148438 50.214844 17.703125 C 50.445312 18.253906 50.097656 19.304688 50.128906 20.234375 C 50.15625 21.167969 50.734375 22.519531 50.386719 23.292969 C 50.039062 24.0625 48.296875 24.222656 48.050781 24.863281 C 47.804688 25.503906 49.132812 26.175781 48.914062 27.136719 C 48.699219 28.09375 47.210938 29.390625 46.75 30.628906 C 46.289062 31.867188 46.648438 33.453125 46.144531 34.558594 C 45.640625 35.664062 44.183594 36.335938 43.71875 37.265625 C 43.257812 38.199219 43.808594 39.304688 43.375 40.148438 C 42.941406 40.992188 41.613281 41.792969 41.125 42.332031 C 40.632812 42.871094 41.050781 42.855469 40.429688 43.378906 C 39.808594 43.90625 38.050781 44.75 37.398438 45.476562 C 36.75 46.203125 36.894531 47.382812 36.535156 47.746094 C 36.171875 48.113281 35.367188 47.9375 34.890625 47.398438 C 34.414062 46.859375 34.296875 45.289062 33.675781 44.515625 C 33.058594 43.746094 32.207031 43.25 31.167969 42.769531 C 30.128906 42.289062 28.425781 42.1875 27.441406 41.632812 C 26.460938 41.082031 26.027344 39.710938 25.277344 39.449219 C 24.527344 39.1875 24.097656 41.167969 22.941406 40.0625 C 21.785156 38.957031 19.753906 34.660156 18.351562 32.8125 C 16.953125 30.964844 16.203125 29.753906 14.542969 28.96875 C 12.882812 28.183594 10.53125 27.832031 8.394531 28.09375 C 6.261719 28.359375 3.042969 30.890625 1.730469 30.542969 C 0.417969 30.191406 0.460938 26.976562 0.515625 26 C 0.574219 25.023438 1.816406 25.78125 2.074219 24.6875 C 2.335938 23.597656 2.363281 20.539062 2.074219 19.449219 C 1.785156 18.355469 0.617188 18.835938 0.34375 18.140625 C 0.0703125 17.441406 -0.160156 16.160156 0.429688 15.257812 C 1.023438 14.355469 3.085938 13.03125 3.894531 12.722656 C 4.703125 12.417969 4.773438 13.613281 5.277344 13.421875 C 5.785156 13.234375 6.316406 11.703125 6.925781 11.589844 C 7.53125 11.472656 7.863281 12.8125 8.914062 12.722656 C 9.96875 12.636719 12.40625 10.714844 13.246094 11.0625 C 14.082031 11.414062 13.375 14.105469 13.9375 14.820312 C 14.5 15.53125 15.65625 14.835938 16.621094 15.34375 C 17.585938 15.851562 18.929688 16.597656 19.738281 17.875 C 20.546875 19.15625 20.703125 22.027344 21.46875 23.03125 C 22.234375 24.035156 24.109375 23.453125 24.328125 23.902344 C 24.542969 24.355469 22.796875 25.039062 22.769531 25.738281 C 22.738281 26.4375 23.90625 27.367188 24.152344 28.09375 C 24.398438 28.824219 24.050781 29.59375 24.238281 30.105469 C 24.425781 30.613281 25.164062 30.511719 25.277344 31.152344 C 25.394531 31.792969 24.414062 33.058594 24.933594 33.949219 C 25.453125 34.835938 27.386719 35.417969 28.394531 36.480469 C 29.40625 37.542969 30.128906 39.273438 30.992188 40.324219 C 31.859375 41.371094 33.734375 43.554688 33.589844 42.769531 C 33.445312 41.984375 31.195312 37.003906 30.128906 35.605469 C 29.058594 34.210938 27.6875 35.273438 27.183594 34.382812 C 26.679688 33.496094 27.300781 31.007812 27.097656 30.277344 C 26.894531 29.550781 26.058594 30.367188 25.972656 30.015625 C 25.886719 29.667969 26.792969 29.113281 26.578125 28.183594 C 26.359375 27.25 24.660156 25.257812 24.671875 24.425781 C 24.6875 23.597656 26.851562 23.65625 26.664062 23.203125 C 26.476562 22.753906 24.328125 22.769531 23.546875 21.71875 C 22.769531 20.671875 22.726562 17.949219 21.988281 16.917969 C 21.253906 15.882812 20.039062 15.925781 19.132812 15.519531 C 18.222656 15.109375 17.253906 15.226562 16.535156 14.46875 C 15.8125 13.714844 15.335938 11.71875 14.804688 10.976562 C 14.269531 10.234375 13.230469 11.007812 13.332031 10.015625 C 13.433594 9.027344 14.585938 6.011719 15.410156 5.039062 C 16.230469 4.0625 17.585938 4.601562 18.265625 4.164062 C 18.945312 3.726562 18.714844 2.535156 19.476562 2.417969 C 20.242188 2.300781 21.570312 3.304688 22.855469 3.464844 C 24.140625 3.625 26.160156 3.582031 27.183594 3.378906 C 28.207031 3.175781 28.410156 1.921875 29 2.242188 C 29.59375 2.5625 30.34375 4.628906 30.734375 5.300781 C 31.125 5.96875 30.949219 6.464844 31.339844 6.261719 C 31.730469 6.058594 32.796875 4.777344 33.070312 4.078125 C 33.34375 3.378906 32.683594 2.375 32.984375 2.066406 C 33.289062 1.761719 34.339844 2.433594 34.890625 2.242188 C 35.4375 2.054688 35.640625 1.050781 36.273438 0.933594 C 36.910156 0.816406 37.917969 1.691406 38.699219 1.542969 C 39.378906 1.417969 40.316406 0.175781 40.78125 0.0429688 Z M 40.78125 0.0429688 "/>
</g>
</svg>
